<?xml version="1.0" standalone="no"?>
<!DOCTYPE svg PUBLIC "-//W3C//DTD SVG 20010904//EN"
 "http://www.w3.org/TR/2001/REC-SVG-20010904/DTD/svg10.dtd">
<svg version="1.0" xmlns="http://www.w3.org/2000/svg"
 width="436.000000pt" height="436.000000pt" viewBox="0 0 436.000000 436.000000"
 preserveAspectRatio="xMidYMid meet">
<metadata>
Created by potrace 1.14, written by Peter Selinger 2001-2017
</metadata>
<g transform="translate(0.000000,436.000000) scale(0.100000,-0.100000)"
fill="#000000" stroke="none">
<path d="M0 2180 l0 -2180 2180 0 2180 0 0 2180 0 2180 -2180 0 -2180 0 0
-2180z m2375 2100 c567 -51 1110 -341 1455 -775 623 -784 623 -1869 1 -2648
-425 -532 -1115 -832 -1794 -779 -948 75 -1720 752 -1912 1679 -143 686 76
1415 575 1913 439 440 1060 666 1675 610z"/>
<path d="M1960 4219 c-376 -42 -761 -205 -1060 -446 -97 -79 -271 -258 -342
-353 -275 -367 -418 -791 -418 -1240 0 -533 200 -1028 569 -1412 132 -137 223
-214 371 -310 326 -213 714 -328 1110 -328 731 0 1398 385 1777 1027 363 617
363 1429 0 2046 -124 210 -309 427 -486 569 -306 247 -683 404 -1073 447 -111
13 -338 12 -448 0z m575 -243 c242 -45 333 -71 573 -159 184 -68 200 -80 244
-164 45 -89 56 -158 35 -239 -11 -44 -12 -62 -4 -73 8 -9 11 -149 12 -476 l0
-464 30 -13 c18 -8 40 -31 55 -58 38 -68 34 -168 -10 -275 -56 -138 -69 -183
-85 -293 -14 -93 -21 -114 -53 -160 -20 -30 -54 -70 -76 -89 -33 -31 -43 -34
-75 -29 -20 3 -43 15 -52 27 -15 21 -17 16 -23 -102 -10 -170 -29 -270 -61
-325 -31 -52 -258 -289 -337 -352 -250 -198 -307 -233 -474 -297 -79 -30 -266
-82 -324 -89 -79 -11 -261 10 -322 37 -68 30 -90 58 -122 155 -15 43 -43 99
-64 127 -21 28 -54 77 -74 110 -50 81 -188 435 -199 510 -5 33 -11 75 -14 93
-6 31 -5 32 28 32 l34 0 12 -82 c13 -83 21 -107 111 -333 56 -143 83 -195 141
-270 38 -50 69 -114 104 -209 16 -43 23 -51 74 -74 52 -25 66 -27 196 -27 130
0 148 3 250 34 223 67 326 119 492 247 136 104 403 366 432 422 29 57 41 141
47 322 7 224 8 228 47 238 44 12 64 -1 78 -51 24 -84 44 -84 107 1 34 44 41
63 47 120 6 66 44 196 91 319 33 87 50 189 34 208 -21 25 -46 17 -103 -34 -43
-40 -117 -150 -117 -174 0 -3 13 -10 29 -15 16 -6 37 -23 47 -37 36 -55 14
-121 -70 -212 -42 -46 -71 -55 -81 -24 -3 11 -16 21 -28 23 -19 3 -22 8 -19
38 1 19 4 64 6 100 2 57 9 78 56 165 32 58 77 124 109 159 49 51 52 57 24 43
-39 -21 -83 -73 -124 -150 -25 -47 -35 -58 -50 -54 -29 8 -47 -33 -105 -235
-8 -26 -33 -30 -90 -13 -74 21 -79 34 -54 147 12 51 22 93 23 94 1 0 17 6 35
12 38 13 38 16 13 -96 -16 -72 -16 -84 -4 -89 19 -8 27 7 42 70 17 74 61 151
89 155 14 2 29 17 42 43 11 21 18 39 15 39 -14 0 135 138 161 149 25 10 33 20
38 49 10 64 7 862 -4 862 -5 0 -31 -13 -58 -30 -27 -16 -79 -41 -115 -55 -37
-14 -107 -45 -156 -69 l-88 -45 -30 -93 c-67 -207 -125 -289 -227 -327 -76
-28 -111 -25 -111 9 0 21 9 27 63 46 35 12 77 34 93 50 37 35 76 118 118 249
33 100 70 155 106 155 9 0 50 17 93 39 42 21 100 46 127 55 79 26 147 75 173
126 43 84 14 216 -60 272 -45 34 -68 45 -162 80 -195 72 -250 89 -396 124
-133 31 -177 37 -305 41 -141 4 -159 3 -295 -27 -80 -18 -147 -34 -150 -37 -3
-3 27 -3 66 1 65 6 222 -6 259 -20 20 -8 19 -50 0 -58 -9 -3 -51 -1 -93 5
-142 20 -426 -14 -684 -82 -23 -6 -60 -31 -95 -64 l-58 -55 65 24 c73 26 203
51 225 42 23 -8 18 -45 -7 -56 -13 -5 -59 -16 -103 -25 -157 -31 -299 -122
-433 -277 -55 -64 -122 -177 -122 -206 0 -7 12 -7 38 0 55 15 137 3 270 -41
65 -22 160 -49 209 -61 83 -21 98 -22 165 -10 120 20 133 19 133 -10 0 -21 -8
-28 -55 -44 -114 -38 -236 -21 -502 70 -107 37 -183 42 -241 16 -45 -20 -47
-23 -47 -61 l0 -40 31 11 c17 6 57 8 92 4 34 -3 94 -8 132 -11 107 -9 115 -12
115 -40 0 -33 -31 -40 -124 -30 -39 5 -102 9 -141 9 l-70 1 -18 -35 c-16 -30
-17 -50 -12 -145 6 -97 21 -208 24 -180 0 6 14 74 30 153 29 142 41 172 67
172 13 0 37 -34 30 -41 -15 -15 -66 -324 -66 -396 0 -46 -5 -115 -11 -152 -10
-58 -9 -72 5 -99 16 -31 16 -32 -3 -32 -11 0 -27 -3 -35 -6 -28 -11 -49 58
-37 118 6 27 11 87 11 134 l0 84 -25 -6 c-19 -5 -26 -1 -34 17 -13 31 -37 314
-34 404 1 58 -1 71 -18 83 -25 17 -24 30 6 74 14 20 32 58 41 85 44 133 80
183 348 493 171 197 280 252 686 350 96 23 204 48 240 55 85 17 287 18 375 1z
m70 -410 c39 -8 132 -38 208 -66 274 -100 341 -104 427 -22 31 28 54 25 58 -9
2 -21 -7 -35 -44 -67 -26 -24 -61 -44 -81 -48 -79 -15 -198 13 -421 97 -140
53 -264 72 -424 66 -97 -4 -129 -2 -138 7 -17 22 0 45 38 52 21 3 42 7 47 10
22 9 264 -6 330 -20z m-798 -203 c99 -37 165 -75 308 -178 189 -136 266 -143
376 -38 61 58 89 64 89 21 0 -33 -54 -94 -114 -128 -97 -56 -211 -35 -355 66
-170 119 -210 144 -303 183 -107 45 -196 61 -247 43 -43 -15 -63 -6 -59 27 7
62 145 64 305 4z m-334 -64 c59 -20 95 -39 216 -115 64 -40 164 -79 275 -108
81 -22 112 -44 89 -67 -39 -39 -304 50 -452 150 -126 86 -225 111 -344 86 -84
-17 -110 -13 -105 19 8 53 204 74 321 35z m1265 -41 c4 -35 -77 -279 -129
-385 -50 -105 -116 -173 -196 -203 -109 -41 -203 -37 -203 9 0 23 19 31 69 31
64 0 135 27 185 71 57 51 108 152 166 335 58 180 57 176 83 172 16 -2 23 -11
25 -30z m154 -478 c27 -52 24 -145 -6 -203 l-23 -47 32 -25 c41 -30 72 -93 81
-162 6 -50 5 -53 -20 -63 -42 -15 -43 -14 -49 52 -8 92 -54 141 -163 173 -46
13 -54 19 -54 39 0 29 17 37 65 29 69 -11 107 63 82 162 -15 58 -7 88 21 83 9
-2 25 -19 34 -38z m-567 -535 c174 -1 180 -2 183 -22 3 -17 -4 -23 -30 -28
-18 -4 -64 -20 -101 -37 l-68 -29 -96 13 -96 13 44 11 44 12 -75 3 c-123 6
-161 2 -189 -19 -20 -15 -112 -52 -128 -52 -2 0 -3 5 -3 10 0 20 81 99 123
120 37 19 51 20 127 14 47 -4 166 -8 265 -9z m-1060 -29 c116 -18 152 -33 214
-93 63 -61 66 -79 9 -53 -24 11 -49 20 -56 20 -8 0 -26 9 -41 20 -33 23 -89
36 -186 44 l-70 6 49 -23 50 -24 -84 -7 c-74 -6 -87 -4 -110 12 -50 38 -30 83
46 101 55 13 77 12 179 -3z m1715 -5 c0 -13 -22 -29 -54 -37 -22 -5 -28 -4
-24 7 8 25 78 52 78 30z m-1410 -518 c-11 -17 -11 -17 -6 0 3 10 7 26 7 35 1
15 2 15 6 0 2 -10 -1 -25 -7 -35z m-1 -153 c1 -44 -6 -69 -33 -123 -44 -86
-37 -114 42 -180 43 -35 110 -38 130 -6 28 45 104 56 145 21 28 -25 51 6 57
76 5 53 7 57 32 60 22 3 27 -2 33 -28 12 -54 -11 -135 -50 -174 -22 -22 -61
-20 -102 5 l-34 22 -27 -33 c-21 -25 -37 -33 -72 -37 -92 -10 -166 29 -222
116 -40 64 -37 97 22 216 27 56 53 117 57 136 7 33 7 33 14 9 4 -14 7 -50 8
-80z m42 -536 c28 -14 34 -14 74 1 39 15 48 16 97 2 73 -21 160 -32 243 -32
63 0 70 -2 70 -20 0 -15 -25 -33 -105 -76 -58 -30 -127 -68 -154 -84 -43 -25
-60 -29 -130 -29 -107 0 -148 13 -224 75 -59 47 -63 53 -60 87 3 32 7 37 35
43 17 3 47 16 65 27 40 26 50 27 89 6z"/>
<path d="M3177 1993 c-4 -3 -4 -22 -1 -42 3 -20 -2 -58 -10 -86 l-15 -50 39
45 c22 24 45 58 52 74 10 26 9 31 -11 47 -24 20 -43 24 -54 12z"/>
<path d="M1557 943 c-16 -15 -4 -23 36 -23 l42 1 -34 14 c-39 17 -36 17 -44 8z"/>
<path d="M1675 935 c-29 -14 -27 -14 43 -15 70 0 95 12 50 24 -34 9 -59 6 -93
-9z"/>
<path d="M1675 851 c-88 -6 -89 -6 -41 -15 55 -10 154 -2 169 13 8 8 4 10 -13
9 -14 -1 -65 -4 -115 -7z"/>
</g>
</svg>
